<svg width="29" height="29" viewBox="0 0 29 29" fill="none" xmlns="http://www.w3.org/2000/svg">
<rect width="29" height="29" fill="white"/>
<path d="M27.0119 13.0332C25.3786 12.5882 23.8937 11.0646 23.9207 9.13643C23.9342 8.38135 23.3808 7.7611 22.6249 7.77459C19.6687 7.81504 17.1984 5.3745 17.1984 2.40811C17.1984 1.74741 16.7259 1.19458 16.0645 1.11368C7.1149 -0.0189407 1 7.5184 1 14.5164C1 21.9593 7.0474 28 14.4987 28C22.0714 28 28.1458 21.7706 27.9973 14.2737C27.991 13.9879 27.8913 13.7119 27.7134 13.488C27.5355 13.264 27.2892 13.1043 27.0119 13.0332ZM9.77413 18.5615C8.65374 18.5615 7.74933 17.6581 7.74933 16.5389C7.74933 15.4198 8.65374 14.5164 9.77413 14.5164C10.8945 14.5164 11.7989 15.4198 11.7989 16.5389C11.7989 17.6581 10.8945 18.5615 9.77413 18.5615ZM12.4739 11.8197C11.3535 11.8197 10.4491 10.9163 10.4491 9.79713C10.4491 8.67799 11.3535 7.77459 12.4739 7.77459C13.5943 7.77459 14.4987 8.67799 14.4987 9.79713C14.4987 10.9163 13.5943 11.8197 12.4739 11.8197ZM18.5483 19.9098C17.8058 19.9098 17.1984 19.3031 17.1984 18.5615C17.1984 17.8199 17.8058 17.2131 18.5483 17.2131C19.2907 17.2131 19.8981 17.8199 19.8981 18.5615C19.8981 19.3031 19.2907 19.9098 18.5483 19.9098Z" fill="#FF6600"/>
</svg>
