<svg width="29" height="29" viewBox="0 0 29 29" fill="none" xmlns="http://www.w3.org/2000/svg">
<rect width="29" height="29" fill="white"/>
<path d="M5.05 2H25.3C26.0161 2 26.7028 2.29266 27.2092 2.81359C27.7155 3.33453 28 4.04107 28 4.77778V8.94444C28 9.68116 27.7155 10.3877 27.2092 10.9086C26.7028 11.4296 26.0161 11.7222 25.3 11.7222H22.6V15.8889C22.6 17.3623 22.0311 18.7754 21.0184 19.8173C20.0057 20.8591 18.6322 21.4444 17.2 21.4444H9.1C7.66783 21.4444 6.29432 20.8591 5.28162 19.8173C4.26893 18.7754 3.7 17.3623 3.7 15.8889V3.38889C3.7 3.02053 3.84223 2.66726 4.09541 2.4068C4.34858 2.14633 4.69196 2 5.05 2ZM22.6 4.77778V8.94444H25.3V4.77778H22.6ZM1 24.2222H25.3V27H1V24.2222Z" fill="#FF6600"/>
</svg>
