<svg width="31" height="29" viewBox="0 0 31 29" fill="none" xmlns="http://www.w3.org/2000/svg">
<path d="M26.858 4.26313C26.1813 3.54579 25.3772 2.97663 24.4918 2.58827C23.6063 2.19991 22.6571 2 21.6984 2C20.7396 2 19.7904 2.19991 18.905 2.58827C18.0195 2.97663 17.2154 3.54579 16.5387 4.26313L15.5 5.37456L14.4613 4.26313C13.7846 3.54579 12.9805 2.97663 12.095 2.58827C11.2096 2.19991 10.2604 2 9.30165 2C8.34294 2 7.39366 2.19991 6.50824 2.58827C5.62283 2.97663 4.8187 3.54579 4.14197 4.26313C1.28223 7.28393 1.10687 12.3851 4.70852 16.2609L15.5 27.6602L26.2915 16.2609C29.8931 12.3851 29.7178 7.28393 26.858 4.26313Z" stroke="black" stroke-width="2.01946" stroke-linecap="round" stroke-linejoin="round"/>
</svg>
