<svg width="47" height="47" viewBox="0 0 47 47" fill="none" xmlns="http://www.w3.org/2000/svg">
<path d="M4.95712 47C3.73168 47 2.68226 46.5613 1.80886 45.684C0.935454 44.8067 0.499495 43.7533 0.50098 42.5238V20.1429C0.50098 18.9119 0.937682 17.8578 1.81109 16.9804C2.68449 16.1031 3.73317 15.6652 4.95712 15.6667H12.3606V11.1905C12.3606 8.09445 13.4472 5.45499 15.6203 3.2721C17.7934 1.08921 20.4203 -0.00149053 23.501 1.52875e-06C26.5831 1.52875e-06 29.2108 1.09145 31.3839 3.27433C33.557 5.45722 34.6428 8.09594 34.6413 11.1905V15.6667H42.0448C43.2703 15.6667 44.3197 16.1053 45.1931 16.9827C46.0665 17.86 46.5025 18.9134 46.501 20.1429V42.5238C46.501 43.7548 46.0643 44.8089 45.1909 45.6862C44.3175 46.5636 43.2688 47.0015 42.0448 47H4.95712ZM23.501 35.8095C24.7264 35.8095 25.7758 35.3709 26.6492 34.4935C27.5226 33.6162 27.9586 32.5628 27.9571 31.3333C27.9571 30.1024 27.5204 29.0482 26.647 28.1709C25.7736 27.2936 24.7249 26.8557 23.501 26.8571C22.2755 26.8571 21.2261 27.2958 20.3527 28.1731C19.4793 29.0505 19.0433 30.1039 19.0448 31.3333C19.0448 32.5643 19.4815 33.6184 20.3549 34.4958C21.2283 35.3731 22.277 35.811 23.501 35.8095ZM16.8168 15.6667H30.1852V11.1905C30.1852 9.3254 29.5353 7.74008 28.2356 6.43453C26.9359 5.12897 25.3577 4.47619 23.501 4.47619C21.6443 4.47619 20.066 5.12897 18.7663 6.43453C17.4666 7.74008 16.8168 9.3254 16.8168 11.1905V15.6667Z" fill="#8A8A8A"/>
</svg>
