<svg width="29" height="29" viewBox="0 0 29 29" fill="none" xmlns="http://www.w3.org/2000/svg">
<rect width="29" height="29" fill="white"/>
<path d="M25.5172 15.4855C26.4148 14.5894 27.0994 13.503 27.5204 12.3067C27.9414 11.1103 28.088 9.83469 27.9493 8.57409C27.8106 7.31348 27.3903 6.10017 26.7193 5.02389C26.0483 3.94761 25.1439 3.0359 24.0729 2.35619C21.3599 0.561532 17.7291 0.548039 14.9892 2.31571C12.6136 3.84049 11.3044 6.21538 11.0749 8.67123C10.8995 10.4524 10.2246 12.1121 8.98282 13.3535L8.94232 13.394C7.37662 14.9593 7.37662 17.3477 8.84784 18.805L10.1841 20.1408C10.8912 20.8473 11.8501 21.2442 12.8498 21.2442C13.8496 21.2442 14.8084 20.8473 15.5156 20.1408C16.8248 18.832 18.5525 18.1168 20.4286 17.9144C22.2778 17.712 24.0864 16.9024 25.5172 15.4855ZM6.75574 25.1065C7.12017 25.8622 6.9987 26.7797 6.36432 27.4004C6.08957 27.6793 5.7394 27.8718 5.35675 27.9546C4.9741 28.0373 4.57562 28.0066 4.21018 27.8662C3.84475 27.7258 3.52825 27.4818 3.29951 27.1642C3.07077 26.8465 2.93973 26.4691 2.92248 26.0781C2.53136 26.0608 2.15379 25.9298 1.83607 25.7011C1.51835 25.4725 1.2743 25.156 1.13386 24.7907C0.993418 24.4254 0.96269 24.027 1.04544 23.6445C1.1282 23.2619 1.32084 22.9118 1.59973 22.6372C2.22061 22.0165 3.15193 21.8815 3.89429 22.2459L7.24165 18.9669C7.43061 19.2233 7.64657 19.5201 7.88953 19.763L9.22577 21.0989C9.50922 21.3688 9.77916 21.5982 10.1301 21.8006L6.75574 25.1065Z" fill="#FF6600"/>
</svg>
