<svg width="29" height="29" viewBox="0 0 29 29" fill="none" xmlns="http://www.w3.org/2000/svg">
<rect width="29" height="29" fill="white"/>
<path d="M25.3708 3.1594C21.8523 1.76721 17.8662 1 14.1453 1C10.3147 1 6.32251 1.75516 2.90171 3.12504C1.67828 3.62105 1.46794 4.49553 1.67888 5.14763L1.92417 5.76116C1.97229 5.88131 2.04411 5.99054 2.13534 6.08234C2.22658 6.17414 2.33536 6.24664 2.4552 6.29551C2.57505 6.34438 2.70351 6.36863 2.83292 6.3668C2.96233 6.36498 3.09006 6.33712 3.20847 6.28489C3.85937 5.99801 4.65068 5.64966 4.83571 5.57493C7.48809 4.47384 10.7191 3.89286 14.1718 3.89286C17.6354 3.89286 20.6861 4.44973 23.4988 5.59542C23.7652 5.7039 24.3956 5.98234 25.0761 6.28609C25.1942 6.33887 25.3218 6.36733 25.4512 6.36976C25.5806 6.37219 25.7092 6.34854 25.8292 6.30023C25.9493 6.25193 26.0584 6.17994 26.1501 6.08857C26.2418 5.9972 26.3141 5.88831 26.3628 5.76839L26.587 5.21875L26.6075 5.16451C26.8154 4.54917 26.6159 3.6548 25.3708 3.1594Z" fill="#FF6600"/>
<path d="M23.4036 7.56076C20.6608 6.45605 17.2864 5.82143 14.1452 5.82143C10.9756 5.82351 7.83386 6.41389 4.87967 7.56256C4.84772 7.57522 4.75551 7.6156 4.62112 7.67587C4.50492 7.72794 4.40019 7.80252 4.31297 7.89528C4.22575 7.98805 4.15776 8.09717 4.11294 8.21635C4.06811 8.33553 4.04733 8.46241 4.0518 8.58966C4.05627 8.71691 4.0859 8.84202 4.13897 8.95776C4.38005 9.4827 4.7067 10.1981 5.07313 11.0002C7.05654 15.3437 10.7491 23.4196 12.4397 26.9152C12.5963 27.2413 12.8421 27.5163 13.1487 27.7083C13.4553 27.9003 13.81 28.0014 14.1718 28C14.5341 28.0014 14.8894 27.8999 15.1963 27.7072C15.5031 27.5145 15.749 27.2386 15.9051 26.9115L15.9087 26.9037L24.1834 8.96982C24.2382 8.85246 24.2686 8.72524 24.273 8.59582C24.2773 8.46639 24.2554 8.33743 24.2086 8.21668C24.1618 8.09592 24.0911 7.98588 24.0007 7.89315C23.9103 7.80042 23.8021 7.72692 23.6826 7.67707C23.5464 7.61982 23.4506 7.58004 23.4114 7.56437L23.4036 7.56076ZM10.44 12.5672C10.0487 12.5927 9.65888 12.4983 9.32259 12.2967C8.98629 12.095 8.71947 11.7956 8.55769 11.4384C8.39591 11.0812 8.34687 10.6831 8.4171 10.2973C8.48733 9.91152 8.6735 9.5563 8.95078 9.27902C9.22806 9.00173 9.58328 8.81557 9.96908 8.74533C10.3549 8.6751 10.7529 8.72414 11.1101 8.88592C11.4673 9.0477 11.7667 9.31453 11.9684 9.65082C12.1701 9.98712 12.2645 10.3769 12.239 10.7682C12.2085 11.2353 12.0092 11.6754 11.6782 12.0064C11.3472 12.3374 10.9071 12.5367 10.44 12.5672ZM14.2971 20.2815C13.9058 20.307 13.516 20.2126 13.1797 20.0109C12.8434 19.8093 12.5766 19.5099 12.4148 19.1526C12.2531 18.7954 12.204 18.3974 12.2742 18.0116C12.3445 17.6258 12.5306 17.2706 12.8079 16.9933C13.0852 16.716 13.4404 16.5298 13.8262 16.4596C14.212 16.3894 14.6101 16.4384 14.9673 16.6002C15.3245 16.762 15.6239 17.0288 15.8256 17.3651C16.0272 17.7014 16.1216 18.0912 16.0961 18.4825C16.0657 18.9496 15.8663 19.3897 15.5353 19.7207C15.2043 20.0517 14.7642 20.251 14.2971 20.2815ZM18.1543 13.5315C17.7629 13.557 17.3732 13.4626 17.0369 13.2609C16.7006 13.0593 16.4337 12.7599 16.272 12.4026C16.1102 12.0454 16.0611 11.6474 16.1314 11.2616C16.2016 10.8758 16.3878 10.5206 16.6651 10.2433C16.9423 9.96602 17.2976 9.77985 17.6834 9.70962C18.0692 9.63939 18.4672 9.68843 18.8244 9.85021C19.1816 10.012 19.481 10.2788 19.6827 10.6151C19.8844 10.9514 19.9788 11.3412 19.9532 11.7325C19.9228 12.1996 19.7235 12.6397 19.3925 12.9707C19.0615 13.3017 18.6214 13.501 18.1543 13.5315Z" fill="#FF6600"/>
</svg>
